<?xml version="1.0" encoding="UTF-8"?>
<svg version="1.1" xmlns="http://www.w3.org/2000/svg" width="500" height="500">
<path d="M0 0 C165 0 330 0 500 0 C500 165 500 330 500 500 C335 500 170 500 0 500 C0 335 0 170 0 0 Z " fill="#F8F7F7" transform="translate(0,0)"/>
<path d="M0 0 C0.66 0 1.32 0 2 0 C6.95 9.9 11.9 19.8 17 30 C20.47007839 28.26496081 22.02457791 27.2009601 24.6015625 24.5234375 C25.25640625 23.853125 25.91125 23.1828125 26.5859375 22.4921875 C27.25882812 21.79351562 27.93171875 21.09484375 28.625 20.375 C29.96669911 18.98247895 31.31283265 17.59421233 32.6640625 16.2109375 C33.55279053 15.28740479 33.55279053 15.28740479 34.45947266 14.34521484 C36 13 36 13 38 13 C38.28973458 19.95170836 38.5739084 26.90362923 38.85449219 33.85571289 C38.950263 36.21318524 39.047236 38.5706091 39.14550781 40.92797852 C39.70174779 54.29192771 40.16886332 67.62344526 40 81 C37.45398073 77.83666282 35.66295959 74.55686888 33.86328125 70.921875 C33.28642578 69.76171875 32.70957031 68.6015625 32.11523438 67.40625 C31.51423507 66.18754332 30.91332472 64.96879276 30.3125 63.75 C29.70024041 62.51544113 29.08761397 61.28106412 28.47460938 60.046875 C26.97945446 57.03301943 25.48806902 54.01735878 24 51 C20.84795019 52.39347376 18.73828227 54.02485079 16.328125 56.4765625 C15.66425781 57.146875 15.00039062 57.8171875 14.31640625 58.5078125 C13.63449219 59.20648438 12.95257813 59.90515625 12.25 60.625 C11.55261719 61.33140625 10.85523438 62.0378125 10.13671875 62.765625 C8.41987512 64.50598703 6.70788168 66.25084981 5 68 C4.34 67.67 3.68 67.34 3 67 C2.60568544 59.74099859 2.21430602 52.48184497 1.82654572 45.22249031 C1.64635214 41.85072294 1.46519479 38.47901342 1.28173828 35.10742188 C1.07072493 31.22018269 0.86316723 27.33277161 0.65625 23.4453125 C0.59062866 22.25011993 0.52500732 21.05492737 0.45739746 19.82351685 C0.1089672 13.20772361 -0.08913303 6.62496542 0 0 Z " fill="#0BA4E1" transform="translate(234,136)"/>
<path d="M0 0 C4.20261675 1.69893018 6.41945133 4.3135019 9 8 C10.51172804 12.53518412 11.1691561 17.57175271 9.03515625 22.00390625 C8.46087891 22.89916016 8.46087891 22.89916016 7.875 23.8125 C7.25625 24.864375 6.6375 25.91625 6 27 C6.55876888 29.28497767 6.55876888 29.28497767 8 31 C8.33 31.99 8.66 32.98 9 34 C6.125 34.125 6.125 34.125 3 34 C2.34 33.34 1.68 32.68 1 32 C-0.9115417 31.82544305 -2.83104056 31.73284854 -4.75 31.6875 C-11.52625 31.224375 -11.52625 31.224375 -14.625 28.75 C-19.16917084 23.4883285 -19.43640437 18.63272538 -19.3203125 11.8828125 C-18.78975581 7.10780229 -16.6632253 4.50447928 -13.19921875 1.37109375 C-9.15839636 -1.1481401 -4.59766016 -0.4994482 0 0 Z " fill="#1F1F1F" transform="translate(181,277)"/>
<path d="M0 0 C2.97 0 5.94 0 9 0 C11.64 6.27 14.28 12.54 17 19 C20.33938534 12.34372011 20.33938534 12.34372011 23.1875 5.5625 C24.8960396 1.1039604 24.8960396 1.1039604 26 0 C28.64 0 31.28 0 34 0 C34 10.23 34 20.46 34 31 C32.02 31 30.04 31 28 31 C27.67 25.06 27.34 19.12 27 13 C24.69 18.94 22.38 24.88 20 31 C18.35 31 16.7 31 15 31 C12.69 25.39 10.38 19.78 8 14 C7.67 19.61 7.34 25.22 7 31 C4.69 31 2.38 31 0 31 C0 20.77 0 10.54 0 0 Z " fill="#1B1B1B" transform="translate(193,277)"/>
<path d="M0 0 C6 0 6 0 7.78271484 1.56054688 C8.48968506 2.62885742 8.48968506 2.62885742 9.2109375 3.71875 C9.73300781 4.48574219 10.25507813 5.25273437 10.79296875 6.04296875 C11.31503906 6.85378906 11.83710938 7.66460937 12.375 8.5 C12.92027344 9.31082031 13.46554687 10.12164062 14.02734375 10.95703125 C15.36994163 12.95915089 16.68743901 14.97806139 18 17 C18.33 11.39 18.66 5.78 19 0 C21.31 0 23.62 0 26 0 C26 10.23 26 20.46 26 31 C20 31 20 31 18.43261719 29.76245117 C18.05782227 29.19502197 17.68302734 28.62759277 17.296875 28.04296875 C16.8740625 27.42486328 16.45125 26.80675781 16.015625 26.16992188 C15.59796875 25.51572266 15.1803125 24.86152344 14.75 24.1875 C14.316875 23.54490234 13.88375 22.90230469 13.4375 22.24023438 C12.2729141 20.50593593 11.13512282 18.75372392 10 17 C9.34 16.01 8.68 15.02 8 14 C7.67 19.61 7.34 25.22 7 31 C4.69 31 2.38 31 0 31 C0 20.77 0 10.54 0 0 Z " fill="#1C1C1C" transform="translate(312,277)"/>
<path d="M0 0 C2.68125 -0.103125 5.3625 -0.20625 8.125 -0.3125 C9.37434326 -0.38078003 9.37434326 -0.38078003 10.64892578 -0.45043945 C14.61844381 -0.52384381 17.29311206 -0.23790411 20.51171875 2.20703125 C23.83835158 5.94100687 23.81046754 7.82865206 23.5390625 12.62109375 C22.73121867 16.18614369 20.85273621 17.84305311 18 20 C17.67 20.33 17.34 20.66 17 21 C13.66381769 21.14257189 10.34024394 21.04228157 7 21 C7 24.3 7 27.6 7 31 C4.69 31 2.38 31 0 31 C0 20.77 0 10.54 0 0 Z " fill="#1F1F1F" transform="translate(264,277)"/>
<path d="M0 0 C3.74030185 1.60298651 4.73158465 2.59737698 7 6 C7 6.99 7 7.98 7 9 C3.625 9.1875 3.625 9.1875 0 9 C-0.66 8.01 -1.32 7.02 -2 6 C-5.08365871 5.7497843 -5.08365871 5.7497843 -8 6 C-8.33 7.32 -8.66 8.64 -9 10 C-7.205625 10.6496875 -7.205625 10.6496875 -5.375 11.3125 C3.73792614 14.73792614 3.73792614 14.73792614 7 18 C7.65689424 23.00881861 7.81531078 24.91291896 4.75 29 C0.09996825 32.2738887 -5.60054562 31.80916193 -11 31 C-14.1875 29.375 -14.1875 29.375 -16 27 C-16.8125 23.75 -16.8125 23.75 -17 21 C-14.1875 20.75 -14.1875 20.75 -11 21 C-10.54625 21.66 -10.0925 22.32 -9.625 23 C-8.21802043 25.19770325 -8.21802043 25.19770325 -6.04296875 25.265625 C-4.02675027 25.25150088 -2.01194698 25.13193095 0 25 C-0.495 22.525 -0.495 22.525 -1 20 C-2.24716797 19.61908203 -2.24716797 19.61908203 -3.51953125 19.23046875 C-4.60621094 18.88628906 -5.69289062 18.54210937 -6.8125 18.1875 C-8.43091797 17.68283203 -8.43091797 17.68283203 -10.08203125 17.16796875 C-12.86083871 16.05570178 -14.28147445 15.41062799 -16 13 C-16.61582155 8.22738297 -16.68107227 6.12729203 -14.1875 2 C-9.52322747 -0.92660237 -5.36675307 -0.7505384 0 0 Z " fill="#1A1A1A" transform="translate(247,277)"/>
<path d="M0 0 C0.66 0 1.32 0 2 0 C3.98 3.96 5.96 7.92 8 12 C12.61848604 10.84537849 14.59484161 8.75414288 17.75 5.4375 C18.25660156 4.91736328 18.76320313 4.39722656 19.28515625 3.86132812 C20.53034405 2.58089916 21.76611502 1.29132446 23 0 C23.99 0.33 24.98 0.66 26 1 C26.33 9.58 26.66 18.16 27 27 C24 26 24 26 22.61328125 23.49609375 C22.18402344 22.48675781 21.75476563 21.47742188 21.3125 20.4375 C20.65701172 18.91962891 20.65701172 18.91962891 19.98828125 17.37109375 C19.66214844 16.58863281 19.33601563 15.80617187 19 15 C14.55073948 15.41314562 12.15899896 18.50461527 9.25 21.5625 C8.74339844 22.08263672 8.23679688 22.60277344 7.71484375 23.13867188 C6.46965595 24.41910084 5.23388498 25.70867554 4 27 C3.01 26.67 2.02 26.34 1 26 C-0.25981943 17.3387414 -0.09020653 8.72998757 0 0 Z " fill="#F0C911" transform="translate(241,163)"/>
<path d="M0 0 C1.98 0 3.96 0 6 0 C6 8.58 6 17.16 6 26 C10.29 26 14.58 26 19 26 C19 27.65 19 29.3 19 31 C12.73 31 6.46 31 0 31 C0 20.77 0 10.54 0 0 Z " fill="#111111" transform="translate(290,277)"/>
<path d="M0 0 C1.94140625 0.40234375 1.94140625 0.40234375 4.44140625 2.33984375 C6.39813359 6.33482874 6.85209035 10.02121486 5.94140625 14.40234375 C4.4140625 16.17578125 4.4140625 16.17578125 2.94140625 17.40234375 C2.61140625 16.41234375 2.28140625 15.42234375 1.94140625 14.40234375 C0.29140625 14.73234375 -1.35859375 15.06234375 -3.05859375 15.40234375 C-2.39859375 16.72234375 -1.73859375 18.04234375 -1.05859375 19.40234375 C-3.37109375 19.65234375 -3.37109375 19.65234375 -6.05859375 19.40234375 C-8.35094925 17.1208783 -9.01551406 15.71699439 -9.45703125 12.4921875 C-9.44929687 11.45191406 -9.4415625 10.41164063 -9.43359375 9.33984375 C-9.44132813 8.29699219 -9.4490625 7.25414062 -9.45703125 6.1796875 C-9.05859375 3.40234375 -9.05859375 3.40234375 -7.78125 1.5625 C-5.31047602 -0.10149064 -2.91793484 -0.13434322 0 0 Z " fill="#F3F2F2" transform="translate(178.05859375,282.59765625)"/>
<path d="M0 0 C2.5 0.8125 2.5 0.8125 5.5 2.8125 C5.5 1.8225 5.5 0.8325 5.5 -0.1875 C6.49 -0.1875 7.48 -0.1875 8.5 -0.1875 C8.5 3.7725 8.5 7.7325 8.5 11.8125 C7.51 11.8125 6.52 11.8125 5.5 11.8125 C5.17 11.1525 4.84 10.4925 4.5 9.8125 C3.84 10.4725 3.18 11.1325 2.5 11.8125 C-0.5 12.125 -0.5 12.125 -3.5 11.8125 C-5.81282587 8.34326119 -5.92478586 6.89044425 -5.5 2.8125 C-3.84321778 0.10932901 -3.18083323 -0.23856249 0 0 Z " fill="#C9C8C8" transform="translate(306.5,320.1875)"/>
<path d="M0 0 C6 0 6 0 8.375 1.125 C10 3 10 3 10.4375 6 C10 9 10 9 8.9375 10.875 C5.99772876 12.58196395 3.32129197 12.18799766 0 12 C0 8.04 0 4.08 0 0 Z " fill="#585858" transform="translate(286,320)"/>
<path d="M0 0 C5.56818182 0.56818182 5.56818182 0.56818182 7 2 C7.27314815 7.73611111 7.27314815 7.73611111 7 10 C5 12 5 12 2.5625 12.3125 C0 12 0 12 -1.875 10.9375 C-3.68060316 7.82785011 -2.79952488 5.38260527 -2 2 C-1.34 1.34 -0.68 0.68 0 0 Z " fill="#A2A1A1" transform="translate(299,342)"/>
<path d="M0 0 C6.875 0.875 6.875 0.875 8 2 C8.33 1.34 8.66 0.68 9 0 C9.66 0 10.32 0 11 0 C11 3.96 11 7.92 11 12 C10.34 12 9.68 12 9 12 C8.67 10.35 8.34 8.7 8 7 C8 8.65 8 10.3 8 12 C7.01 11.67 6.02 11.34 5 11 C4.67 10.34 4.34 9.68 4 9 C3.01 8.67 2.02 8.34 1 8 C0.67 9.32 0.34 10.64 0 12 C0 8.04 0 4.08 0 0 Z " fill="#404040" transform="translate(247,320)"/>
<path d="M0 0 C0.66 0 1.32 0 2 0 C2.33 0.66 2.66 1.32 3 2 C3.66 1.34 4.32 0.68 5 0 C8.125 0.375 8.125 0.375 11 1 C10.67 1.66 10.34 2.32 10 3 C8.35 2.67 6.7 2.34 5 2 C5 2.99 5 3.98 5 5 C5.78375 5.0825 6.5675 5.165 7.375 5.25 C10 6 10 6 11.3125 8.0625 C11.539375 8.701875 11.76625 9.34125 12 10 C10 12 10 12 7.5 12.25 C5 12 5 12 3 10 C2.67 10.66 2.34 11.32 2 12 C1.34 12 0.68 12 0 12 C0 8.04 0 4.08 0 0 Z " fill="#858484" transform="translate(164,320)"/>
<path d="M0 0 C6.0546875 -0.1953125 6.0546875 -0.1953125 8 0 C10 2 10 2 10.25 4.5 C10 7 10 7 8 9 C5.31160615 9.26991906 2.70858064 9.08737357 0 9 C0 6.03 0 3.06 0 0 Z " fill="#F2F1F1" transform="translate(271,283)"/>
<path d="M0 0 C0.66 0 1.32 0 2 0 C2.33 3.3 2.66 6.6 3 10 C4.32 10 5.64 10 7 10 C7.33 6.7 7.66 3.4 8 0 C9.65 0 11.3 0 13 0 C13 3.63 13 7.26 13 11 C14.98 11 16.96 11 19 11 C19 11.33 19 11.66 19 12 C15.33333333 12 11.66666667 12 8 12 C6.4840625 12.061875 6.4840625 12.061875 4.9375 12.125 C2 12 2 12 0 10 C-0.1953125 7.6171875 -0.1953125 7.6171875 -0.125 4.875 C-0.10695312 3.96492188 -0.08890625 3.05484375 -0.0703125 2.1171875 C-0.04710937 1.41851562 -0.02390625 0.71984375 0 0 Z " fill="#636262" transform="translate(175,342)"/>
<path d="M0 0 C3.42580031 1.71290015 3.78005573 5.50652322 5 9 C5.33 6.03 5.66 3.06 6 0 C6.99 0 7.98 0 9 0 C9 3.3 9 6.6 9 10 C10.32 10 11.64 10 13 10 C13 10.66 13 11.32 13 12 C10.03 12 7.06 12 4 12 C2.02 8.535 2.02 8.535 0 5 C-0.99 7.31 -1.98 9.62 -3 12 C-4.21386936 8.35839192 -3.6674695 7.66834531 -2.0625 4.3125 C-1.49208984 3.10013672 -1.49208984 3.10013672 -0.91015625 1.86328125 C-0.60980469 1.24839844 -0.30945313 0.63351562 0 0 Z " fill="#838383" transform="translate(329,320)"/>
<path d="M0 0 C3 1 3 1 4.1875 3.375 C5 6 5 6 5 9 C5.66 9 6.32 9 7 9 C7.99 6.03 8.98 3.06 10 0 C10.66 0 11.32 0 12 0 C12 3.96 12 7.92 12 12 C11.34 12 10.68 12 10 12 C9.67 10.68 9.34 9.36 9 8 C8.34 9.32 7.68 10.64 7 12 C6.34 12 5.68 12 5 12 C4.34 10.35 3.68 8.7 3 7 C2.67 8.65 2.34 10.3 2 12 C1.34 12 0.68 12 0 12 C0 8.04 0 4.08 0 0 Z " fill="#4F4F4F" transform="translate(196,320)"/>
<path d="M0 0 C3.29714793 0.32971479 4.6226839 0.6226839 7 3 C6.53846154 9.46153846 6.53846154 9.46153846 4 12 C1.375 12.125 1.375 12.125 -1 12 C-1 11.01 -1 10.02 -1 9 C0.98 9.495 0.98 9.495 3 10 C3.33 9.01 3.66 8.02 4 7 C2.35 6.67 0.7 6.34 -1 6 C-1.625 4.125 -1.625 4.125 -2 2 C-1.34 1.34 -0.68 0.68 0 0 Z " fill="#8B8A8A" transform="translate(156,320)"/>
<path d="M0 0 C1.98 0 3.96 0 6 0 C8 2 8 2 8.125 4.625 C8.08375 5.40875 8.0425 6.1925 8 7 C6.02 7.33 4.04 7.66 2 8 C2 9.32 2 10.64 2 12 C1.34 12 0.68 12 0 12 C0 8.04 0 4.08 0 0 Z " fill="#575757" transform="translate(195,342)"/>
<path d="M0 0 C3.42580031 1.71290015 3.78005573 5.50652322 5 9 C5.33 6.03 5.66 3.06 6 0 C6.99 0 7.98 0 9 0 C9.33 1.32 9.66 2.64 10 4 C9.67 4 9.34 4 9 4 C8.67 6.64 8.34 9.28 8 12 C5.6875 11.875 5.6875 11.875 3 11 C1.1875 7.9375 1.1875 7.9375 0 5 C-0.99 7.31 -1.98 9.62 -3 12 C-4.21386936 8.35839192 -3.6674695 7.66834531 -2.0625 4.3125 C-1.49208984 3.10013672 -1.49208984 3.10013672 -0.91015625 1.86328125 C-0.60980469 1.24839844 -0.30945313 0.63351562 0 0 Z " fill="#444444" transform="translate(264,320)"/>
<path d="M0 0 C0.66 0 1.32 0 2 0 C2.6708712 1.6232687 3.33657029 3.24867578 4 4.875 C4.556875 6.23238281 4.556875 6.23238281 5.125 7.6171875 C6 10 6 10 6 12 C5.34 12 4.68 12 4 12 C3.67 11.34 3.34 10.68 3 10 C0.47266765 9.34444881 0.47266765 9.34444881 -2 9 C-2 9.99 -2 10.98 -2 12 C-2.66 12 -3.32 12 -4 12 C-3.52309796 10.37433394 -3.04340334 8.74948689 -2.5625 7.125 C-2.29566406 6.22007812 -2.02882812 5.31515625 -1.75390625 4.3828125 C-1 2 -1 2 0 0 Z " fill="#4A4A4A" transform="translate(242,342)"/>
<path d="M0 0 C2.4375 0.875 2.4375 0.875 4.4375 3.875 C2.1275 3.545 -0.1825 3.215 -2.5625 2.875 C-2.8925 5.185 -3.2225 7.495 -3.5625 9.875 C-1.9125 9.875 -0.2625 9.875 1.4375 9.875 C1.7675 9.215 2.0975 8.555 2.4375 7.875 C1.4475 7.875 0.4575 7.875 -0.5625 7.875 C-0.5625 7.215 -0.5625 6.555 -0.5625 5.875 C1.0875 5.875 2.7375 5.875 4.4375 5.875 C3.5625 10.75 3.5625 10.75 2.4375 11.875 C-0.5 12.125 -0.5 12.125 -3.5625 11.875 C-5.87532587 8.40576119 -5.98728586 6.95294425 -5.5625 2.875 C-3.8925532 0.15034996 -3.20820586 -0.15649785 0 0 Z " fill="#535252" transform="translate(306.5625,320.125)"/>
<path d="M0 0 C0.66 0 1.32 0 2 0 C2.6708712 1.6232687 3.33657029 3.24867578 4 4.875 C4.556875 6.23238281 4.556875 6.23238281 5.125 7.6171875 C6 10 6 10 6 12 C5.34 12 4.68 12 4 12 C4 11.01 4 10.02 4 9 C1.52733235 9.34444881 1.52733235 9.34444881 -1 10 C-1.33 10.66 -1.66 11.32 -2 12 C-2.66 11.67 -3.32 11.34 -4 11 C-2.68 7.37 -1.36 3.74 0 0 Z " fill="#787878" transform="translate(222,342)"/>
<path d="M0 0 C0.66 0 1.32 0 2 0 C2.5345256 1.24420647 3.05208611 2.49570936 3.5625 3.75 C3.85253906 4.44609375 4.14257812 5.1421875 4.44140625 5.859375 C5.07831803 8.30012784 4.80248831 9.6403655 4 12 C3.67 11.01 3.34 10.02 3 9 C1.35 9 -0.3 9 -2 9 C-2.33 9.99 -2.66 10.98 -3 12 C-4.21386936 8.35839192 -3.6674695 7.66834531 -2.0625 4.3125 C-1.49208984 3.10013672 -1.49208984 3.10013672 -0.91015625 1.86328125 C-0.60980469 1.24839844 -0.30945313 0.63351562 0 0 Z " fill="#646363" transform="translate(320,342)"/>
<path d="M0 0 C0.66 0 1.32 0 2 0 C2.5345256 1.24420647 3.05208611 2.49570936 3.5625 3.75 C3.85253906 4.44609375 4.14257812 5.1421875 4.44140625 5.859375 C5.07831803 8.30012784 4.80248831 9.6403655 4 12 C3.67 11.01 3.34 10.02 3 9 C1.35 9 -0.3 9 -2 9 C-2.33 9.99 -2.66 10.98 -3 12 C-4.21386936 8.35839192 -3.6674695 7.66834531 -2.0625 4.3125 C-1.49208984 3.10013672 -1.49208984 3.10013672 -0.91015625 1.86328125 C-0.60980469 1.24839844 -0.30945313 0.63351562 0 0 Z " fill="#646363" transform="translate(276,342)"/>
<path d="M0 0 C0.66 0 1.32 0 2 0 C2.5345256 1.24420647 3.05208611 2.49570936 3.5625 3.75 C3.85253906 4.44609375 4.14257812 5.1421875 4.44140625 5.859375 C5.07831803 8.30012784 4.80248831 9.6403655 4 12 C3.67 11.01 3.34 10.02 3 9 C1.35 9 -0.3 9 -2 9 C-2.33 9.99 -2.66 10.98 -3 12 C-4.21386936 8.35839192 -3.6674695 7.66834531 -2.0625 4.3125 C-1.49208984 3.10013672 -1.49208984 3.10013672 -0.91015625 1.86328125 C-0.60980469 1.24839844 -0.30945313 0.63351562 0 0 Z " fill="#646363" transform="translate(218,320)"/>
<path d="M0 0 C0.33 0.99 0.66 1.98 1 3 C0.34 3 -0.32 3 -1 3 C-1 2.34 -1 1.68 -1 1 C-2.65 1.33 -4.3 1.66 -6 2 C-6 3.98 -6 5.96 -6 8 C-4.68 8.33 -3.36 8.66 -2 9 C-1.67 8.34 -1.34 7.68 -1 7 C-1.66 7 -2.32 7 -3 7 C-3 6.34 -3 5.68 -3 5 C-1.68 5 -0.36 5 1 5 C0.125 9.875 0.125 9.875 -1 11 C-3.77193929 11.29178308 -5.41409825 11.36366316 -7.8125 9.875 C-9.55198782 7.12844028 -9.39769128 5.18153026 -9 2 C-6.6888271 -1.98035333 -4.06268971 -0.99310193 0 0 Z " fill="#585858" transform="translate(270,343)"/>
<path d="M0 0 C0.66 0 1.32 0 2 0 C3.2890625 1.53125 3.2890625 1.53125 4.625 3.5 C5.07101563 4.1496875 5.51703125 4.799375 5.9765625 5.46875 C6.31429687 5.9740625 6.65203125 6.479375 7 7 C7.33 4.69 7.66 2.38 8 0 C8.33 0 8.66 0 9 0 C9 3.96 9 7.92 9 12 C7 10 5 8 3 6 C2.67 7.98 2.34 9.96 2 12 C1.34 12 0.68 12 0 12 C0 8.04 0 4.08 0 0 Z " fill="#424242" transform="translate(225,320)"/>
<path d="M0 0 C1.66611905 -0.042721 3.33382885 -0.04063832 5 0 C6 1 6 1 6.1875 3.9375 C6 7 6 7 4 9 C2.68 9 1.36 9 0 9 C0 6.03 0 3.06 0 0 Z " fill="#EFEEEE" transform="translate(288,322)"/>
<path d="M0 0 C2.31 0 4.62 0 7 0 C7 0.66 7 1.32 7 2 C5.35 2 3.7 2 2 2 C2 2.99 2 3.98 2 5 C3.65 5 5.3 5 7 5 C7 5.66 7 6.32 7 7 C5.35 7 3.7 7 2 7 C2 8.32 2 9.64 2 11 C3.65 11 5.3 11 7 11 C7 11.33 7 11.66 7 12 C4.69 12 2.38 12 0 12 C0 8.04 0 4.08 0 0 Z " fill="#585858" transform="translate(187,320)"/>
<path d="M0 0 C-0.15404113 5.08335725 -3.02068432 7.35754718 -6.50390625 10.64453125 C-6.99761719 11.09183594 -7.49132812 11.53914062 -8 12 C-8.66 11.67 -9.32 11.34 -10 11 C-9.42380903 7.43235179 -8.13030516 5.74840503 -5.5625 3.25 C-4.94503906 2.63640625 -4.32757813 2.0228125 -3.69140625 1.390625 C-2 0 -2 0 0 0 Z " fill="#2DB0E4" transform="translate(286,144)"/>
<path d="M0 0 C0.66 0 1.32 0 2 0 C2.33 1.32 2.66 2.64 3 4 C4.65 2.68 6.3 1.36 8 0 C7 2 6 4 5 6 C5.99 7.32 6.98 8.64 8 10 C7.67 10.66 7.34 11.32 7 12 C5.5 10.625 5.5 10.625 4 9 C4 8.34 4 7.68 4 7 C3.34 7 2.68 7 2 7 C2 8.65 2 10.3 2 12 C1.34 12 0.68 12 0 12 C0 8.04 0 4.08 0 0 Z " fill="#4B4B4B" transform="translate(287,342)"/>
<path d="M0 0 C-0.56990652 3.59357719 -1.86382477 5.17249271 -4.5 7.625 C-7.11806646 10.03610916 -7.11806646 10.03610916 -9 13 C-9.66 13 -10.32 13 -11 13 C-11.33 12.01 -11.66 11.02 -12 10 C-10.38113585 8.32737283 -8.7547271 6.66204463 -7.125 5 C-6.22007812 4.071875 -5.31515625 3.14375 -4.3828125 2.1875 C-2 0 -2 0 0 0 Z " fill="#15A8E1" transform="translate(291,155)"/>
<path d="M0 0 C0.99 0 1.98 0 3 0 C3 3.3 3 6.6 3 10 C4.32 10 5.64 10 7 10 C7 10.66 7 11.32 7 12 C4.69 12 2.38 12 0 12 C0 8.04 0 4.08 0 0 Z " fill="#828181" transform="translate(229,342)"/>
<path d="M0 0 C-0.27517768 4.67802059 -2.33193886 6.74638753 -5.52734375 9.86328125 C-7 11 -7 11 -9 11 C-8.72482232 6.32197941 -6.66806114 4.25361247 -3.47265625 1.13671875 C-2 0 -2 0 0 0 Z " fill="#2EB0E4" transform="translate(234,196)"/>
<path d="M0 0 C2.5 0.3125 2.5 0.3125 5 1 C5.33 1.66 5.66 2.32 6 3 C3.03 2.505 3.03 2.505 0 2 C0 2.99 0 3.98 0 5 C1.98 5.66 3.96 6.32 6 7 C5.67 8.65 5.34 10.3 5 12 C3.02 12 1.04 12 -1 12 C-1.33 11.01 -1.66 10.02 -2 9 C0.97 9.495 0.97 9.495 4 10 C4 9.34 4 8.68 4 8 C2.02 7.01 0.04 6.02 -2 5 C-1.125 1.125 -1.125 1.125 0 0 Z " fill="#484848" transform="translate(211,342)"/>
<path d="M0 0 C0.66 0.99 1.32 1.98 2 3 C-1.3 6.3 -4.6 9.6 -8 13 C-8.66 12.01 -9.32 11.02 -10 10 C-6.7 6.7 -3.4 3.4 0 0 Z " fill="#11A7E3" transform="translate(229,184)"/>
<path d="M0 0 C2.97 0 5.94 0 9 0 C9 0.66 9 1.32 9 2 C8.01 2 7.02 2 6 2 C6 5.3 6 8.6 6 12 C5.34 12 4.68 12 4 12 C4 8.7 4 5.4 4 2 C2.68 2 1.36 2 0 2 C0 1.34 0 0.68 0 0 Z " fill="#626262" transform="translate(247,342)"/>
<path d="M0 0 C2.97 0 5.94 0 9 0 C9 0.66 9 1.32 9 2 C7.68 2 6.36 2 5 2 C5 5.3 5 8.6 5 12 C4.34 12 3.68 12 3 12 C3 8.7 3 5.4 3 2 C2.01 2 1.02 2 0 2 C0 1.34 0 0.68 0 0 Z " fill="#626161" transform="translate(177,320)"/>
<path d="M0 0 C2.97 0 5.94 0 9 0 C9 0.66 9 1.32 9 2 C7.68 2 6.36 2 5 2 C5 5.3 5 8.6 5 12 C4.34 12 3.68 12 3 12 C3 8.7 3 5.4 3 2 C2.01 2 1.02 2 0 2 C0 1.34 0 0.68 0 0 Z " fill="#646363" transform="translate(316,320)"/>
<path d="M0 0 C2.97 0 5.94 0 9 0 C9 0.66 9 1.32 9 2 C8.01 2 7.02 2 6 2 C6 5.3 6 8.6 6 12 C5.34 12 4.68 12 4 12 C4 8.7 4 5.4 4 2 C2.68 2 1.36 2 0 2 C0 1.34 0 0.68 0 0 Z " fill="#626262" transform="translate(236,320)"/>
<path d="M0 0 C2.64 0 5.28 0 8 0 C8 0.66 8 1.32 8 2 C7.01 2 6.02 2 5 2 C5 5.3 5 8.6 5 12 C4.34 12 3.68 12 3 12 C3 8.7 3 5.4 3 2 C2.01 2 1.02 2 0 2 C0 1.34 0 0.68 0 0 Z " fill="#5D5D5D" transform="translate(308,342)"/>
<path d="M0 0 C2.55934601 1.279673 2.6989233 2.24201036 3.6875 4.875 C3.95949219 5.57367188 4.23148437 6.27234375 4.51171875 6.9921875 C5 9 5 9 4 12 C2.02 8.535 2.02 8.535 0 5 C-0.99 7.31 -1.98 9.62 -3 12 C-4.21386936 8.35839192 -3.6674695 7.66834531 -2.0625 4.3125 C-1.49208984 3.10013672 -1.49208984 3.10013672 -0.91015625 1.86328125 C-0.60980469 1.24839844 -0.30945313 0.63351562 0 0 Z " fill="#444444" transform="translate(329,320)"/>
<path d="M0 0 C0.66 0.33 1.32 0.66 2 1 C1.67 3.31 1.34 5.62 1 8 C0.01 8.33 -0.98 8.66 -2 9 C-2.99 7.35 -3.98 5.7 -5 4 C-3.35 2.68 -1.7 1.36 0 0 Z " fill="#EFEEEE" transform="translate(296,343)"/>
<path d="M0 0 C0.66 0 1.32 0 2 0 C2 3.96 2 7.92 2 12 C1.34 12 0.68 12 0 12 C-0.33 10.35 -0.66 8.7 -1 7 C-1.33 7 -1.66 7 -2 7 C-2.125 4.625 -2.125 4.625 -2 2 C-1.34 1.34 -0.68 0.68 0 0 Z " fill="#7C7C7C" transform="translate(256,320)"/>
<path d="M0 0 C0.99 0 1.98 0 3 0 C3.33 1.32 3.66 2.64 4 4 C3.67 4 3.34 4 3 4 C2.67 6.64 2.34 9.28 2 12 C1.01 11.67 0.02 11.34 -1 11 C-0.67 7.37 -0.34 3.74 0 0 Z " fill="#767676" transform="translate(270,320)"/>
<path d="M0 0 C1.98 0 3.96 0 6 0 C6 1.98 6 3.96 6 6 C5.34 5.34 4.68 4.68 4 4 C2.35 5.65 0.7 7.3 -1 9 C-1.66 8.67 -2.32 8.34 -3 8 C-1.35 6.35 0.3 4.7 2 3 C1.34 2.67 0.68 2.34 0 2 C0 1.34 0 0.68 0 0 Z " fill="#37B7E5" transform="translate(294,163)"/>
<path d="M0 0 C0.66 0 1.32 0 2 0 C2 3.96 2 7.92 2 12 C1.34 12 0.68 12 0 12 C-2.21538462 4.61538462 -2.21538462 4.61538462 -1.125 1.5 C-0.75375 1.005 -0.3825 0.51 0 0 Z " fill="#595959" transform="translate(206,320)"/>
<path d="M0 0 C0 3 0 3 -1.5 4.6875 C-1.995 5.120625 -2.49 5.55375 -3 6 C-2.67 6.99 -2.34 7.98 -2 9 C-3.65 9 -5.3 9 -7 9 C-7 7.02 -7 5.04 -7 3 C-6.34 3.66 -5.68 4.32 -5 5 C-3.35 3.35 -1.7 1.7 0 0 Z " fill="#32B3E2" transform="translate(217,181)"/>
<path d="M0 0 C0.625 2.5625 0.625 2.5625 1 5 C0.34 5 -0.32 5 -1 5 C-1 4.01 -1 3.02 -1 2 C-3.47266765 2.34444881 -3.47266765 2.34444881 -6 3 C-6.33 3.66 -6.66 4.32 -7 5 C-7.66 4.67 -8.32 4.34 -9 4 C-8.3125 2.0625 -8.3125 2.0625 -7 0 C-4.12060581 -0.93580311 -2.74490212 -1.37245106 0 0 Z " fill="#4C4C4C" transform="translate(227,349)"/>
<path d="M0 0 C1.32 0 2.64 0 4 0 C3.125 4.875 3.125 4.875 2 6 C0.33382885 6.04063832 -1.33388095 6.042721 -3 6 C-3.66 4.68 -4.32 3.36 -5 2 C-3.515 2.99 -3.515 2.99 -2 4 C-1.01 4 -0.02 4 1 4 C1.33 3.34 1.66 2.68 2 2 C1.34 2 0.68 2 0 2 C0 1.34 0 0.68 0 0 Z " fill="#434343" transform="translate(267,348)"/>
<path d="M0 0 C0.33 1.65 0.66 3.3 1 5 C-0.65 5 -2.3 5 -4 5 C-4 5.99 -4 6.98 -4 8 C-4.66 8 -5.32 8 -6 8 C-5.62403791 5.21788056 -5.32681541 3.4120716 -3.5625 1.1875 C-2 0 -2 0 0 0 Z " fill="#838383" transform="translate(244,346)"/>
<path d="M0 0 C1.65 0 3.3 0 5 0 C5 1.32 5 2.64 5 4 C3.35 4 1.7 4 0 4 C0 2.68 0 1.36 0 0 Z " fill="#ECECEC" transform="translate(248,322)"/>
<path d="M0 0 C2.475 0.495 2.475 0.495 5 1 C5 1.99 5 2.98 5 4 C3.35 4 1.7 4 0 4 C0 2.68 0 1.36 0 0 Z " fill="#EEEDED" transform="translate(197,344)"/>
</svg>
